<svg width="20" height="20" viewBox="0 0 20 20" fill="none" xmlns="http://www.w3.org/2000/svg">
<g opacity="0.2">
<rect opacity="0.01" width="20" height="20" fill="black"/>
<path fill-rule="evenodd" clip-rule="evenodd" d="M9.40831 17.2583C9.56557 17.4143 9.77847 17.5013 9.99998 17.5C10.2215 17.5013 10.4344 17.4143 10.5916 17.2583L17.0666 10.775C18.757 9.06698 18.757 6.31639 17.0666 4.60835C15.3624 2.90887 12.6043 2.90887 10.9 4.60835L9.99998 5.50835L9.09998 4.60835C7.39569 2.90887 4.63759 2.90887 2.93331 4.60835C1.24293 6.31639 1.24293 9.06698 2.93331 10.775L9.40831 17.2583ZM4.11664 5.78335C4.61988 5.27887 5.30409 4.99679 6.01664 5.00001C6.7292 4.99679 7.4134 5.27887 7.91664 5.78335L9.40831 7.28335C9.56478 7.44111 9.77778 7.52985 9.99998 7.52985C10.2222 7.52985 10.4352 7.44111 10.5916 7.28335L12.0833 5.78335C13.1497 4.7759 14.817 4.7759 15.8833 5.78335C16.931 6.8366 16.931 8.53842 15.8833 9.59168L9.99998 15.4833L4.11664 9.59168C3.0689 8.53842 3.0689 6.8366 4.11664 5.78335Z" fill="black"/>
</g>
</svg>
