<svg width="20" height="20" viewBox="0 0 20 20" fill="none" xmlns="http://www.w3.org/2000/svg">
<g opacity="0.2">
<rect opacity="0.01" width="20" height="20" fill="black"/>
<path fill-rule="evenodd" clip-rule="evenodd" d="M1.66669 9.99996C1.66669 5.39759 5.39765 1.66663 10 1.66663C12.2102 1.66663 14.3298 2.5446 15.8926 4.1074C17.4554 5.67021 18.3334 7.78982 18.3334 9.99996C18.3334 14.6023 14.6024 18.3333 10 18.3333C5.39765 18.3333 1.66669 14.6023 1.66669 9.99996ZM3.33335 9.99996C3.33335 13.6819 6.31812 16.6666 10 16.6666C11.7681 16.6666 13.4638 15.9642 14.7141 14.714C15.9643 13.4638 16.6667 11.7681 16.6667 9.99996C16.6667 6.31806 13.6819 3.33329 10 3.33329C6.31812 3.33329 3.33335 6.31806 3.33335 9.99996Z" fill="black"/>
<path d="M12.5 9.16663H10.8334V7.49996C10.8334 7.03972 10.4603 6.66663 10 6.66663C9.53978 6.66663 9.16669 7.03972 9.16669 7.49996V9.16663H7.50002C7.03978 9.16663 6.66669 9.53972 6.66669 9.99996C6.66669 10.4602 7.03978 10.8333 7.50002 10.8333H9.16669V12.5C9.16669 12.9602 9.53978 13.3333 10 13.3333C10.4603 13.3333 10.8334 12.9602 10.8334 12.5V10.8333H12.5C12.9603 10.8333 13.3334 10.4602 13.3334 9.99996C13.3334 9.53972 12.9603 9.16663 12.5 9.16663Z" fill="black"/>
</g>
</svg>
